<svg xmlns="http://www.w3.org/2000/svg" viewBox="0 0 256 256" role="img" aria-labelledby="title desc">
  <title id="title">HongRae Tech Blog favicon</title>
  <desc id="desc">Monogram favicon with the letters H and R.</desc>
  <defs>
    <linearGradient id="bg" x1="0%" y1="0%" x2="100%" y2="100%">
      <stop offset="0%" stop-color="#0f172a" />
      <stop offset="100%" stop-color="#1d4ed8" />
    </linearGradient>
  </defs>
  <rect width="256" height="256" rx="58" fill="url(#bg)" />
  <circle cx="128" cy="128" r="88" fill="none" stroke="#93c5fd" stroke-width="8" opacity="0.9" />
  <path
    d="M66 66h26v39h50V66h26v124h-26v-59H92v59H66V66zm86 0h40c18 0 31 4 40 12 8 8 13 18 13 31 0 11-3 20-9 27-6 8-14 13-24 16l32 38h-34l-28-34h-4v34h-26V66zm26 66h12c9 0 16-2 21-6 4-4 7-9 7-16 0-7-3-12-7-15-5-4-12-6-21-6h-12v43z"
    fill="#eff6ff"
  />
</svg>
